<?xml version="1.0" encoding="UTF-8" standalone="no"?>
<!-- Generated by IcoMoon.io -->

<svg
   xmlns:dc="http://purl.org/dc/elements/1.1/"
   xmlns:cc="http://creativecommons.org/ns#"
   xmlns:rdf="http://www.w3.org/1999/02/22-rdf-syntax-ns#"
   xmlns:svg="http://www.w3.org/2000/svg"
   xmlns="http://www.w3.org/2000/svg"
   xmlns:sodipodi="http://sodipodi.sourceforge.net/DTD/sodipodi-0.dtd"
   xmlns:inkscape="http://www.inkscape.org/namespaces/inkscape"
   version="1.1"
   width="32"
   height="32"
   viewBox="0 0 32 32"
   id="svg11"
   sodipodi:docname="empty.svg"
   inkscape:version="0.92.2 5c3e80d, 2017-08-06"
   inkscape:export-filename="/home/lana/material-wifi-icons/png/empty.png"
   inkscape:export-xdpi="66"
   inkscape:export-ydpi="66">
  <metadata
     id="metadata17">
    <rdf:RDF>
      <cc:Work
         rdf:about="">
        <dc:format>image/svg+xml</dc:format>
        <dc:type
           rdf:resource="http://purl.org/dc/dcmitype/StillImage" />
      </cc:Work>
    </rdf:RDF>
  </metadata>
  <defs
     id="defs15" />
  <sodipodi:namedview
     pagecolor="#ffffff"
     bordercolor="#666666"
     borderopacity="1"
     objecttolerance="10"
     gridtolerance="10"
     guidetolerance="10"
     inkscape:pageopacity="0"
     inkscape:pageshadow="2"
     inkscape:window-width="1366"
     inkscape:window-height="768"
     id="namedview13"
     showgrid="false"
     inkscape:zoom="7.375"
     inkscape:cx="-15.457627"
     inkscape:cy="16"
     inkscape:window-x="0"
     inkscape:window-y="0"
     inkscape:window-maximized="0"
     inkscape:current-layer="svg11" />
  <title
     id="title2" />
  <path
     d="M16 6.717c-4.502 0-8.251 1.227-10.95 2.51s-4.399 2.661-4.654 2.855l-0.395 0.303 15.747 19.614h0.504l0.147-0.183 15.602-19.431-0.399-0.305c-0.253-0.193-1.953-1.57-4.652-2.854s-6.449-2.51-10.95-2.51zM16 7.694c4.324 0 7.932 1.178 10.532 2.415 2.351 1.118 3.534 2.087 4.047 2.485l-14.579 18.158-14.579-18.158c0.512-0.397 1.696-1.368 4.047-2.485 2.6-1.236 6.208-2.415 10.532-2.415z"
     id="path9"
     style="fill:#f4f5f5;fill-opacity:1"
     inkscape:export-filename="/home/lana/material-wifi-icons/png/empty.png"
     inkscape:export-xdpi="66"
     inkscape:export-ydpi="66" />
</svg>
