<?xml version="1.0" encoding="UTF-8" standalone="no"?>
<!-- Generated by IcoMoon.io -->

<svg
   xmlns:dc="http://purl.org/dc/elements/1.1/"
   xmlns:cc="http://creativecommons.org/ns#"
   xmlns:rdf="http://www.w3.org/1999/02/22-rdf-syntax-ns#"
   xmlns:svg="http://www.w3.org/2000/svg"
   xmlns="http://www.w3.org/2000/svg"
   xmlns:sodipodi="http://sodipodi.sourceforge.net/DTD/sodipodi-0.dtd"
   xmlns:inkscape="http://www.inkscape.org/namespaces/inkscape"
   version="1.1"
   width="32"
   height="32"
   viewBox="0 0 32 32"
   id="svg11"
   sodipodi:docname="threequarters.svg"
   inkscape:version="0.92.2 5c3e80d, 2017-08-06">
  <metadata
     id="metadata17">
    <rdf:RDF>
      <cc:Work
         rdf:about="">
        <dc:format>image/svg+xml</dc:format>
        <dc:type
           rdf:resource="http://purl.org/dc/dcmitype/StillImage" />
        <dc:title />
      </cc:Work>
    </rdf:RDF>
  </metadata>
  <defs
     id="defs15" />
  <sodipodi:namedview
     pagecolor="#ffffff"
     bordercolor="#666666"
     borderopacity="1"
     objecttolerance="10"
     gridtolerance="10"
     guidetolerance="10"
     inkscape:pageopacity="0"
     inkscape:pageshadow="2"
     inkscape:window-width="1366"
     inkscape:window-height="768"
     id="namedview13"
     showgrid="false"
     showguides="true"
     inkscape:guide-bbox="true"
     inkscape:zoom="11.313709"
     inkscape:cx="-0.91939838"
     inkscape:cy="16.786423"
     inkscape:window-x="0"
     inkscape:window-y="0"
     inkscape:window-maximized="0"
     inkscape:current-layer="layer1" />
  <g
     inkscape:groupmode="layer"
     id="layer2"
     inkscape:label="Old"
     style="display:inline" />
  <g
     inkscape:groupmode="layer"
     id="layer1"
     inkscape:label="new"
     style="display:inline">
    <g
       id="g822"
       inkscape:export-filename="/home/lana/material-wifi-icons/png/threequarters.png"
       inkscape:export-xdpi="67.253052"
       inkscape:export-ydpi="67.253052"
       style="fill:#f4f5f5;fill-opacity:1">
      <path
         style="display:inline;fill:#f4f5f5;fill-opacity:1"
         inkscape:connector-curvature="0"
         id="path9"
         d="M 16,6.305 C 11.498,6.305 7.749,7.531 5.052,8.813 2.355,10.095 0.65,11.476 0.407,11.66 l -0.406,0.306 5.835,7.269 c -0.01,0.008 -0.021,0.015 -0.031,0.023 1.197,1.437 2.368,2.897 3.544,4.353 l 6.611,8.236 c 0.041,0.051 0.081,0.102 0.121,0.152 L 16.41,31.389 32,11.966 31.594,11.66 C 31.35,11.476 29.646,10.095 26.949,8.813 24.252,7.531 20.503,6.305 16.001,6.305 Z m 0,0.986 c 4.323,0 7.927,1.178 10.525,2.412 2.345,1.115 3.52,2.076 4.041,2.478 l -5.177,6.451 c -0.446,-0.338 -1.258,-0.926 -2.595,-1.563 -1.686,-0.804 -4.009,-1.563 -6.792,-1.563 -2.783,0 -5.108,0.759 -6.794,1.563 -0.929,0.417 -1.762,0.988 -2.576,1.586 L 1.434,12.181 C 1.955,11.78 3.13,10.818 5.475,9.703 8.073,8.468 11.677,7.291 16,7.291 Z" />
      <ellipse
         ry="4.0658641"
         rx="12.164169"
         cy="16.090097"
         cx="15.876481"
         id="path27"
         style="fill:#f4f5f5;fill-opacity:1;stroke-width:1.18898082" />
      <rect
         transform="matrix(0.83976982,0.54294258,-0.81877117,0.57412,0,0)"
         y="-2.7446074"
         x="29.336027"
         height="2.6240976"
         width="2.0020018"
         id="rect3728"
         style="fill:#f4f5f5;fill-opacity:1;stroke-width:1.44777656" />
      <rect
         transform="matrix(-0.83976982,0.54294258,0.81877117,0.57412,0,0)"
         y="15.85697"
         x="9.4497776"
         height="2.6240976"
         width="2.0020018"
         id="rect3728-3"
         style="display:inline;fill:#f4f5f5;fill-opacity:1;stroke-width:1.44777656" />
    </g>
  </g>
</svg>
